<mxfile host="app.diagrams.net" modified="2021-03-24T08:09:01.444Z" agent="5.0 (Windows NT 10.0; Win64; x64) AppleWebKit/537.36 (KHTML, like Gecko) Chrome/89.0.4389.90 Safari/537.36" etag="cypmKe19N_IcM_3lJ2Em" version="14.4.9" type="github">
  <diagram id="C5RBs43oDa-KdzZeNtuy" name="Page-1">
    <mxGraphModel dx="1038" dy="548" grid="1" gridSize="10" guides="1" tooltips="1" connect="1" arrows="1" fold="1" page="1" pageScale="1" pageWidth="827" pageHeight="1169" math="0" shadow="0">
      <root>
        <mxCell id="WIyWlLk6GJQsqaUBKTNV-0" />
        <mxCell id="WIyWlLk6GJQsqaUBKTNV-1" parent="WIyWlLk6GJQsqaUBKTNV-0" />
        <mxCell id="8Qs-TF6ljIgiQCCs90ox-6" value="" style="edgeStyle=orthogonalEdgeStyle;rounded=0;orthogonalLoop=1;jettySize=auto;html=1;fontStyle=1;spacing=2;fontSize=15;" edge="1" parent="WIyWlLk6GJQsqaUBKTNV-1" source="WIyWlLk6GJQsqaUBKTNV-3" target="8Qs-TF6ljIgiQCCs90ox-5">
          <mxGeometry relative="1" as="geometry" />
        </mxCell>
        <mxCell id="WIyWlLk6GJQsqaUBKTNV-3" value="初始数据" style="rounded=1;whiteSpace=wrap;html=1;fontSize=15;glass=0;strokeWidth=1;shadow=0;fontStyle=1;spacing=2;" parent="WIyWlLk6GJQsqaUBKTNV-1" vertex="1">
          <mxGeometry x="160" y="50" width="120" height="40" as="geometry" />
        </mxCell>
        <mxCell id="8Qs-TF6ljIgiQCCs90ox-8" value="" style="edgeStyle=orthogonalEdgeStyle;rounded=0;orthogonalLoop=1;jettySize=auto;html=1;fontStyle=1;spacing=2;fontSize=15;" edge="1" parent="WIyWlLk6GJQsqaUBKTNV-1" source="8Qs-TF6ljIgiQCCs90ox-5" target="8Qs-TF6ljIgiQCCs90ox-7">
          <mxGeometry relative="1" as="geometry" />
        </mxCell>
        <mxCell id="8Qs-TF6ljIgiQCCs90ox-5" value="建立区域凸包" style="whiteSpace=wrap;html=1;rounded=1;shadow=0;strokeWidth=1;glass=0;fontStyle=1;spacing=2;fontSize=15;" vertex="1" parent="WIyWlLk6GJQsqaUBKTNV-1">
          <mxGeometry x="160" y="110" width="120" height="60" as="geometry" />
        </mxCell>
        <mxCell id="8Qs-TF6ljIgiQCCs90ox-47" style="edgeStyle=orthogonalEdgeStyle;rounded=0;orthogonalLoop=1;jettySize=auto;html=1;exitX=0.5;exitY=1;exitDx=0;exitDy=0;entryX=0.5;entryY=0;entryDx=0;entryDy=0;fontStyle=1;spacing=2;fontSize=15;" edge="1" parent="WIyWlLk6GJQsqaUBKTNV-1" source="8Qs-TF6ljIgiQCCs90ox-7" target="8Qs-TF6ljIgiQCCs90ox-11">
          <mxGeometry relative="1" as="geometry" />
        </mxCell>
        <mxCell id="8Qs-TF6ljIgiQCCs90ox-7" value="构建初始三角网" style="whiteSpace=wrap;html=1;rounded=1;shadow=0;strokeWidth=1;glass=0;fontStyle=1;spacing=2;fontSize=15;" vertex="1" parent="WIyWlLk6GJQsqaUBKTNV-1">
          <mxGeometry x="160" y="190" width="120" height="60" as="geometry" />
        </mxCell>
        <mxCell id="8Qs-TF6ljIgiQCCs90ox-48" style="edgeStyle=orthogonalEdgeStyle;rounded=0;orthogonalLoop=1;jettySize=auto;html=1;exitX=0.5;exitY=1;exitDx=0;exitDy=0;entryX=0.5;entryY=0;entryDx=0;entryDy=0;fontStyle=1;spacing=2;fontSize=15;" edge="1" parent="WIyWlLk6GJQsqaUBKTNV-1" source="8Qs-TF6ljIgiQCCs90ox-11" target="8Qs-TF6ljIgiQCCs90ox-19">
          <mxGeometry relative="1" as="geometry" />
        </mxCell>
        <mxCell id="8Qs-TF6ljIgiQCCs90ox-11" value="定位算法判断离散点所在三角形" style="whiteSpace=wrap;html=1;rounded=1;shadow=0;strokeWidth=1;glass=0;fontStyle=1;spacing=2;fontSize=15;" vertex="1" parent="WIyWlLk6GJQsqaUBKTNV-1">
          <mxGeometry x="160" y="280" width="120" height="60" as="geometry" />
        </mxCell>
        <mxCell id="8Qs-TF6ljIgiQCCs90ox-55" value="" style="edgeStyle=orthogonalEdgeStyle;rounded=0;orthogonalLoop=1;jettySize=auto;html=1;fontSize=15;" edge="1" parent="WIyWlLk6GJQsqaUBKTNV-1" source="8Qs-TF6ljIgiQCCs90ox-13" target="8Qs-TF6ljIgiQCCs90ox-24">
          <mxGeometry relative="1" as="geometry" />
        </mxCell>
        <mxCell id="8Qs-TF6ljIgiQCCs90ox-13" value="是" style="text;html=1;align=center;verticalAlign=middle;resizable=0;points=[];autosize=1;fontStyle=1;spacing=2;fontSize=15;" vertex="1" parent="WIyWlLk6GJQsqaUBKTNV-1">
          <mxGeometry x="235" y="450" width="30" height="30" as="geometry" />
        </mxCell>
        <mxCell id="8Qs-TF6ljIgiQCCs90ox-23" style="edgeStyle=orthogonalEdgeStyle;rounded=0;orthogonalLoop=1;jettySize=auto;html=1;entryX=0;entryY=0.5;entryDx=0;entryDy=0;fontStyle=1;spacing=2;fontSize=15;" edge="1" parent="WIyWlLk6GJQsqaUBKTNV-1" source="8Qs-TF6ljIgiQCCs90ox-19" target="8Qs-TF6ljIgiQCCs90ox-11">
          <mxGeometry relative="1" as="geometry">
            <Array as="points">
              <mxPoint x="140" y="415" />
              <mxPoint x="140" y="310" />
            </Array>
          </mxGeometry>
        </mxCell>
        <mxCell id="8Qs-TF6ljIgiQCCs90ox-46" value="否" style="edgeLabel;html=1;align=center;verticalAlign=middle;resizable=0;points=[];fontStyle=1;spacing=2;fontSize=15;" vertex="1" connectable="0" parent="8Qs-TF6ljIgiQCCs90ox-23">
          <mxGeometry x="0.3311" y="1" relative="1" as="geometry">
            <mxPoint x="-19" y="20" as="offset" />
          </mxGeometry>
        </mxCell>
        <mxCell id="8Qs-TF6ljIgiQCCs90ox-56" style="edgeStyle=orthogonalEdgeStyle;rounded=0;orthogonalLoop=1;jettySize=auto;html=1;exitX=0.5;exitY=1;exitDx=0;exitDy=0;entryX=0.5;entryY=0;entryDx=0;entryDy=0;fontSize=15;" edge="1" parent="WIyWlLk6GJQsqaUBKTNV-1" source="8Qs-TF6ljIgiQCCs90ox-19" target="8Qs-TF6ljIgiQCCs90ox-24">
          <mxGeometry relative="1" as="geometry" />
        </mxCell>
        <mxCell id="8Qs-TF6ljIgiQCCs90ox-19" value="离散点在三角形中" style="rhombus;whiteSpace=wrap;html=1;rounded=1;shadow=0;strokeWidth=1;glass=0;fontStyle=1;spacing=2;fontSize=15;" vertex="1" parent="WIyWlLk6GJQsqaUBKTNV-1">
          <mxGeometry x="160" y="370" width="130" height="90" as="geometry" />
        </mxCell>
        <mxCell id="8Qs-TF6ljIgiQCCs90ox-24" value="构成新的三角形" style="whiteSpace=wrap;html=1;rounded=1;shadow=0;strokeWidth=1;glass=0;fontStyle=1;spacing=2;fontSize=15;" vertex="1" parent="WIyWlLk6GJQsqaUBKTNV-1">
          <mxGeometry x="165" y="480" width="120" height="60" as="geometry" />
        </mxCell>
        <mxCell id="8Qs-TF6ljIgiQCCs90ox-31" value="" style="edgeStyle=orthogonalEdgeStyle;rounded=0;orthogonalLoop=1;jettySize=auto;html=1;exitX=0.5;exitY=1;exitDx=0;exitDy=0;fontStyle=1;spacing=2;fontSize=15;" edge="1" parent="WIyWlLk6GJQsqaUBKTNV-1" source="8Qs-TF6ljIgiQCCs90ox-24" target="8Qs-TF6ljIgiQCCs90ox-30">
          <mxGeometry relative="1" as="geometry">
            <mxPoint x="220" y="850" as="sourcePoint" />
          </mxGeometry>
        </mxCell>
        <mxCell id="8Qs-TF6ljIgiQCCs90ox-40" value="" style="edgeStyle=orthogonalEdgeStyle;rounded=0;orthogonalLoop=1;jettySize=auto;html=1;fontStyle=1;spacing=2;fontSize=15;" edge="1" parent="WIyWlLk6GJQsqaUBKTNV-1" source="8Qs-TF6ljIgiQCCs90ox-30" target="8Qs-TF6ljIgiQCCs90ox-39">
          <mxGeometry relative="1" as="geometry" />
        </mxCell>
        <mxCell id="8Qs-TF6ljIgiQCCs90ox-30" value="LOP算法优化" style="whiteSpace=wrap;html=1;rounded=1;shadow=0;strokeWidth=1;glass=0;fontStyle=1;spacing=2;fontSize=15;" vertex="1" parent="WIyWlLk6GJQsqaUBKTNV-1">
          <mxGeometry x="165" y="570" width="120" height="60" as="geometry" />
        </mxCell>
        <mxCell id="8Qs-TF6ljIgiQCCs90ox-42" value="" style="edgeStyle=orthogonalEdgeStyle;rounded=0;orthogonalLoop=1;jettySize=auto;html=1;fontStyle=1;spacing=2;fontSize=15;" edge="1" parent="WIyWlLk6GJQsqaUBKTNV-1" source="8Qs-TF6ljIgiQCCs90ox-39" target="8Qs-TF6ljIgiQCCs90ox-41">
          <mxGeometry relative="1" as="geometry" />
        </mxCell>
        <mxCell id="8Qs-TF6ljIgiQCCs90ox-50" value="" style="edgeStyle=orthogonalEdgeStyle;rounded=0;orthogonalLoop=1;jettySize=auto;html=1;fontStyle=1;spacing=2;fontSize=15;" edge="1" parent="WIyWlLk6GJQsqaUBKTNV-1" source="8Qs-TF6ljIgiQCCs90ox-39" target="8Qs-TF6ljIgiQCCs90ox-41">
          <mxGeometry relative="1" as="geometry" />
        </mxCell>
        <mxCell id="8Qs-TF6ljIgiQCCs90ox-54" style="edgeStyle=orthogonalEdgeStyle;rounded=0;orthogonalLoop=1;jettySize=auto;html=1;exitX=1;exitY=0.5;exitDx=0;exitDy=0;entryX=1;entryY=0.5;entryDx=0;entryDy=0;fontStyle=1;spacing=2;fontSize=15;" edge="1" parent="WIyWlLk6GJQsqaUBKTNV-1" source="8Qs-TF6ljIgiQCCs90ox-39" target="8Qs-TF6ljIgiQCCs90ox-11">
          <mxGeometry relative="1" as="geometry">
            <Array as="points">
              <mxPoint x="310" y="695" />
              <mxPoint x="310" y="310" />
            </Array>
          </mxGeometry>
        </mxCell>
        <mxCell id="8Qs-TF6ljIgiQCCs90ox-39" value="存在离散点" style="rhombus;whiteSpace=wrap;html=1;rounded=1;shadow=0;strokeWidth=1;glass=0;fontStyle=1;spacing=2;fontSize=15;" vertex="1" parent="WIyWlLk6GJQsqaUBKTNV-1">
          <mxGeometry x="178.12" y="655" width="93.75" height="80" as="geometry" />
        </mxCell>
        <mxCell id="8Qs-TF6ljIgiQCCs90ox-41" value="三角网构建完成" style="whiteSpace=wrap;html=1;rounded=1;shadow=0;strokeWidth=1;glass=0;fontStyle=1;spacing=2;fontSize=15;" vertex="1" parent="WIyWlLk6GJQsqaUBKTNV-1">
          <mxGeometry x="164.99" y="770" width="120" height="60" as="geometry" />
        </mxCell>
        <mxCell id="8Qs-TF6ljIgiQCCs90ox-44" style="edgeStyle=orthogonalEdgeStyle;rounded=0;orthogonalLoop=1;jettySize=auto;html=1;exitX=0.5;exitY=1;exitDx=0;exitDy=0;fontStyle=1;spacing=2;fontSize=15;" edge="1" parent="WIyWlLk6GJQsqaUBKTNV-1" source="8Qs-TF6ljIgiQCCs90ox-41" target="8Qs-TF6ljIgiQCCs90ox-41">
          <mxGeometry relative="1" as="geometry" />
        </mxCell>
        <mxCell id="8Qs-TF6ljIgiQCCs90ox-49" value="是" style="text;html=1;align=center;verticalAlign=middle;resizable=0;points=[];autosize=1;fontStyle=1;spacing=2;fontSize=15;" vertex="1" parent="WIyWlLk6GJQsqaUBKTNV-1">
          <mxGeometry x="220" y="340" width="30" height="30" as="geometry" />
        </mxCell>
        <mxCell id="8Qs-TF6ljIgiQCCs90ox-51" value="否" style="text;html=1;align=center;verticalAlign=middle;resizable=0;points=[];autosize=1;fontStyle=1;spacing=2;fontSize=15;" vertex="1" parent="WIyWlLk6GJQsqaUBKTNV-1">
          <mxGeometry x="230" y="735" width="30" height="30" as="geometry" />
        </mxCell>
        <mxCell id="8Qs-TF6ljIgiQCCs90ox-57" value="是" style="text;html=1;align=center;verticalAlign=middle;resizable=0;points=[];autosize=1;fontSize=15;fontStyle=1;spacing=2;" vertex="1" parent="WIyWlLk6GJQsqaUBKTNV-1">
          <mxGeometry x="275" y="670" width="30" height="20" as="geometry" />
        </mxCell>
      </root>
    </mxGraphModel>
  </diagram>
</mxfile>
